<svg width="11" height="19" viewBox="0 0 11 19" fill="none" xmlns="http://www.w3.org/2000/svg">
<path d="M2.22484 9.5L9.86325 17.3764C10.0362 17.5548 10.1333 17.7967 10.1333 18.0489C10.1333 18.3012 10.0362 18.5431 9.86325 18.7214C9.69032 18.8998 9.45578 19 9.21121 19C8.96665 19 8.73211 18.8998 8.55918 18.7214L0.270566 10.1725C0.1848 10.0843 0.116755 9.97946 0.0703267 9.86406C0.0238986 9.74866 0 9.62494 0 9.5C0 9.37506 0.0238986 9.25134 0.0703267 9.13594C0.116755 9.02054 0.1848 8.91572 0.270566 8.82749L8.55918 0.278565C8.73211 0.100203 8.96665 0 9.21121 0C9.45578 0 9.69032 0.100203 9.86325 0.278565C10.0362 0.456927 10.1333 0.698838 10.1333 0.95108C10.1333 1.20332 10.0362 1.44523 9.86325 1.6236L2.22484 9.5Z" fill="#444444"/>
</svg>
